<svg width="29" height="28" viewBox="0 0 29 28" fill="none" xmlns="http://www.w3.org/2000/svg">
<path d="M1.32 12.76C1.05333 12.8667 0.919999 13.32 0.919999 14.12C0.919999 14.8667 1.05333 15.32 1.32 15.48L28.04 27.24C28.2 27.2933 28.3333 27.2133 28.44 27C28.5467 26.7333 28.6 26.3867 28.6 25.96C28.6 25.5333 28.5467 25.1333 28.44 24.76C28.3333 24.3333 28.2 24.0933 28.04 24.04L4.76 14.12L28.04 4.2C28.2 4.14666 28.3333 3.93333 28.44 3.56C28.5467 3.13333 28.6 2.70667 28.6 2.28C28.6 1.85333 28.5467 1.50667 28.44 1.24C28.3333 0.919998 28.2 0.813331 28.04 0.919998L1.32 12.76Z" fill="#12A0CD"/>
</svg>
