<svg width="32" height="74" viewBox="0 0 32 74" fill="none" xmlns="http://www.w3.org/2000/svg">
<path d="M29.6766 53.76C29.9433 53.8667 30.0766 54.32 30.0766 55.12C30.0766 55.8667 29.9433 56.32 29.6766 56.48L2.95658 68.24C2.79658 68.2933 2.66325 68.2133 2.55658 68C2.44992 67.7333 2.39658 67.3867 2.39658 66.96C2.39658 66.5333 2.44992 66.1333 2.55658 65.76C2.66325 65.3333 2.79658 65.0933 2.95658 65.04L26.2366 55.12L2.95658 45.2C2.79658 45.1467 2.66325 44.9333 2.55658 44.56C2.44992 44.1333 2.39658 43.7067 2.39658 43.28C2.39658 42.8533 2.44992 42.5067 2.55658 42.24C2.66325 41.92 2.79658 41.8133 2.95658 41.92L29.6766 53.76Z" fill="#12A0CD"/>
</svg>
