<svg width="32" height="32" viewBox="0 0 32 32" fill="none" xmlns="http://www.w3.org/2000/svg">
<circle cx="16" cy="16" r="16" fill="#0065B1"/>
<path d="M20.5246 9.45936C20.5246 9.45931 20.5251 9.46038 20.5259 9.46273C20.525 9.46059 20.5246 9.45942 20.5246 9.45936ZM20.2715 11.8232C19.7548 14.5642 17.9131 16.1218 17.6951 16.3061C17.6936 16.3074 17.6922 16.3086 17.6908 16.3098C17.3271 16.603 16.4824 17.1581 15.6259 17.6742C15.2004 17.9306 14.7814 18.1718 14.43 18.3598C14.3081 18.425 14.1988 18.4814 14.1032 18.5288L11.5141 12.5498C11.5468 12.534 11.5811 12.5174 11.6171 12.5C11.9557 12.3362 12.4396 12.1039 13.0205 11.83C14.1827 11.282 15.7304 10.5687 17.2765 9.90517C18.827 9.23977 20.3591 8.63186 21.4959 8.28854C22.0721 8.11455 22.5082 8.02073 22.7831 8.00763C22.7904 8.00728 22.7975 8.00699 22.8044 8.00677L23.3299 18.7941L18.6691 19.4728C19.0204 19.0605 19.3806 18.6071 19.7092 18.1628C20.0386 17.7174 20.3428 17.2726 20.5787 16.8784C20.8036 16.5026 20.999 16.1207 21.0652 15.8155C21.464 14.0603 21.616 12.387 21.6351 11.1522C21.6446 10.5358 21.6212 10.0175 21.5756 9.64645C21.5533 9.46525 21.5231 9.29636 21.4801 9.1631C21.4602 9.10116 21.4261 9.01011 21.3656 8.92593C21.3162 8.85731 21.1392 8.6487 20.8369 8.69455L20.7899 8.70168L20.7451 8.71754C20.5442 8.78862 20.4611 8.94931 20.4331 9.01696C20.4027 9.09036 20.393 9.15798 20.3889 9.19395C20.3802 9.26987 20.3816 9.3536 20.3836 9.41926C20.3855 9.47879 20.389 9.54882 20.3926 9.62224C20.3934 9.63681 20.3941 9.65151 20.3948 9.66629C20.3993 9.75819 20.4041 9.86046 20.4074 9.97398C20.4207 10.4255 20.4118 11.0593 20.2715 11.8232Z" fill="white" stroke="white"/>
<path d="M3.34937 10.1372C4.46564 9.93969 6.06564 9.86068 7.44239 10.9273C8.6703 11.915 8.70751 13.0212 10.4191 16.3397C11.8703 19.1051 12.5773 20.4878 13.768 21.1199C15.0331 21.831 15.9633 21.436 18.9401 20.9619C20.4657 20.6854 22.6982 20.3693 25.5261 20.1718" stroke="white" stroke-miterlimit="10"/>
<path d="M18.1791 24.5568C18.1791 25.0729 17.7921 25.4395 17.3768 25.4395C16.9615 25.4395 16.5745 25.0729 16.5745 24.5568C16.5745 24.0406 16.9615 23.6741 17.3768 23.6741C17.7921 23.6741 18.1791 24.0406 18.1791 24.5568Z" fill="#0065B1" stroke="white"/>
<path d="M22.4953 23.925C22.4953 24.4411 22.1083 24.8077 21.693 24.8077C21.2776 24.8077 20.8906 24.4411 20.8906 23.925C20.8906 23.4088 21.2776 23.0422 21.693 23.0422C22.1083 23.0422 22.4953 23.4088 22.4953 23.925Z" fill="#0065B1" stroke="white"/>
</svg>
