<svg width="36" height="74" viewBox="0 0 36 74" fill="none" xmlns="http://www.w3.org/2000/svg">
<path d="M6.32 53.76C6.05333 53.8667 5.92 54.32 5.92 55.12C5.92 55.8667 6.05333 56.32 6.32 56.48L33.04 68.24C33.2 68.2933 33.3333 68.2133 33.44 68C33.5467 67.7333 33.6 67.3867 33.6 66.96C33.6 66.5333 33.5467 66.1333 33.44 65.76C33.3333 65.3333 33.2 65.0933 33.04 65.04L9.76 55.12L33.04 45.2C33.2 45.1467 33.3333 44.9333 33.44 44.56C33.5467 44.1333 33.6 43.7067 33.6 43.28C33.6 42.8533 33.5467 42.5067 33.44 42.24C33.3333 41.92 33.2 41.8133 33.04 41.92L6.32 53.76Z" fill="#12A0CD"/>
</svg>
