<svg width="43" height="41" viewBox="0 0 43 41" fill="none" xmlns="http://www.w3.org/2000/svg">
<path d="M22.2938 40.7712C23.8988 41.3962 33.1272 36.813 40.9513 22.4383C44.1612 16.3967 43.9607 5.35531 37.7415 2.02204L35.1334 0.772052C29.9173 -1.93623 25.5037 2.85536 22.6951 9.31356C15.6734 24.1049 20.6889 40.1462 22.2938 40.7712Z" fill="#0065B1"/>
<path d="M22.6951 40.7712C21.0901 41.3962 10.0561 36.813 2.23196 22.4383C-0.977937 16.3967 -1.37916 6.18863 5.44187 2.02204L8.04989 0.772052C13.266 -1.93623 17.6796 2.85536 20.4883 9.31356C27.7105 24.1049 24.0994 40.1462 22.6951 40.7712Z" fill="#0065B1"/>
<path d="M21.4432 32.7997C22.339 33.1032 27.4897 30.8774 31.8567 23.8967C33.6483 20.9627 33.5363 15.6007 30.0651 13.982L28.6095 13.3749C25.6982 12.0597 23.2348 14.3866 21.6672 17.5229C17.7481 24.706 20.5474 32.4962 21.4432 32.7997Z" fill="#ACDCFF"/>
<path d="M21.667 32.7997C20.7712 33.1032 14.6127 30.8774 10.2457 23.8967C8.45417 20.9627 8.23024 16.0054 12.0373 13.982L13.493 13.3749C16.4043 12.0597 18.8677 14.3866 20.4353 17.5229C24.4663 24.706 22.4508 32.4962 21.667 32.7997Z" fill="#ACDCFF"/>
</svg>
