<svg width="61" height="47" viewBox="0 0 61 47" fill="none" xmlns="http://www.w3.org/2000/svg">
<path d="M21.2 12.1596L29.2 29.5596C31 29.0596 38.3 24.8596 40.4 23.2596C40.9 22.8596 46.3 18.6596 47.8 11.1596C48.6 7.05959 47.9 4.35957 48.2 4.25957C48.9 4.15957 49.4 12.0596 47.3 20.7596C46.8 22.9596 41.5999 29.3596 38.5999 32.0596L56.0999 29.6596L54.5999 0.659592C54.5999 -3.34041 21.2 12.1596 21.2 12.1596Z" fill="#0065B1"/>
<path d="M1 6.65962C4 6.15962 8.3 5.95962 12 8.65962C15.3 11.1596 15.4 13.9596 20 22.3596C23.9 29.3596 25.8 32.8596 29 34.4596C32.4 36.2596 34.9 35.2596 42.9 34.0596C47 33.3596 53 32.5596 60.6 32.0596" stroke="#0065B1" stroke-width="3" stroke-miterlimit="10"/>
<path d="M38.7 46.6596C40.6329 46.6596 42.2 45.0926 42.2 43.1596C42.2 41.2266 40.6329 39.6596 38.7 39.6596C36.767 39.6596 35.2 41.2266 35.2 43.1596C35.2 45.0926 36.767 46.6596 38.7 46.6596Z" fill="#0065B1"/>
<path d="M50.3 45.0596C52.233 45.0596 53.8 43.4926 53.8 41.5596C53.8 39.6266 52.233 38.0596 50.3 38.0596C48.3671 38.0596 46.8 39.6266 46.8 41.5596C46.8 43.4926 48.3671 45.0596 50.3 45.0596Z" fill="#0065B1"/>
</svg>
